<svg width="169" height="30" viewBox="0 0 169 30" fill="none" xmlns="http://www.w3.org/2000/svg">
<path fill-rule="evenodd" clip-rule="evenodd" d="M23.5934 16.9647C22.8782 17.224 22.0649 17.3537 21.1533 17.3537C20.1788 17.3537 19.389 17.224 18.7839 16.9647C18.1788 16.7053 17.6719 16.4106 17.2632 16.0806C17.4047 15.7191 17.5029 15.3929 17.5579 15.1022C17.613 14.8114 17.664 14.4381 17.7112 13.9823H17.9941C18.1198 14.2652 18.2888 14.5521 18.501 14.8428C18.7132 15.1336 18.9725 15.3969 19.279 15.6326C19.5855 15.8684 19.943 16.0609 20.3517 16.2102C20.7603 16.3595 21.2161 16.4342 21.7191 16.4342C22.2378 16.4342 22.7053 16.3438 23.1218 16.1631C23.5384 15.9823 23.892 15.7387 24.1828 15.4322C24.4735 15.1257 24.6975 14.7642 24.8547 14.3477C25.0118 13.9312 25.0904 13.4872 25.0904 13.0157C25.0904 12.2927 24.9058 11.719 24.5364 11.2947C24.167 10.8703 23.7073 10.5167 23.1572 10.2337C22.6071 9.95084 22.0138 9.6915 21.3772 9.45574C20.7407 9.21998 20.1474 8.92529 19.5973 8.57165C19.0472 8.21801 18.5874 7.76614 18.2181 7.21604C17.8487 6.66593 17.664 5.92722 17.664 4.9999C17.664 4.33978 17.7819 3.7386 18.0177 3.19635C18.2534 2.65411 18.5953 2.18652 19.0432 1.79359C19.4912 1.40066 20.0295 1.09417 20.6582 0.874129C21.2869 0.654088 21.9941 0.544067 22.78 0.544067C23.5344 0.544067 24.1867 0.634442 24.7368 0.81519C25.2869 0.995938 25.7977 1.27492 26.2692 1.65213C26.1278 1.91933 26.0099 2.20224 25.9156 2.50086C25.8213 2.79949 25.727 3.1767 25.6327 3.6325H25.3498C25.2712 3.41246 25.1651 3.17278 25.0315 2.91344C24.8979 2.65411 24.7171 2.41442 24.4892 2.19438C24.2613 1.97434 23.9902 1.78966 23.6759 1.64034C23.3615 1.49103 22.9843 1.41637 22.5442 1.41637C22.1042 1.41637 21.6994 1.4871 21.3301 1.62856C20.9607 1.77001 20.6385 1.97041 20.3635 2.22974C20.0884 2.48908 19.8762 2.79949 19.7269 3.16099C19.5776 3.52248 19.503 3.91542 19.503 4.33978C19.503 5.07849 19.6876 5.66003 20.057 6.08439C20.4263 6.50876 20.8861 6.86633 21.4362 7.1571C21.9863 7.44787 22.5796 7.7072 23.2161 7.9351C23.8527 8.163 24.446 8.44198 24.9961 8.77204C25.5462 9.1021 26.006 9.52647 26.3753 10.0451C26.7447 10.5638 26.9293 11.2554 26.9293 12.1198C26.9293 12.8428 26.7997 13.5265 26.5403 14.1709C26.281 14.8153 25.9038 15.3772 25.4087 15.8566C24.9136 16.336 24.3085 16.7053 23.5934 16.9647ZM49.8922 15.3969C50.2144 16.1199 50.4777 16.67 50.682 17.0472C50.462 17.0157 50.2537 17 50.0573 17H48.8077C48.6113 17 48.403 17.0157 48.183 17.0472C48.073 16.6857 47.9237 16.2495 47.735 15.7387C47.5464 15.2279 47.3382 14.6935 47.1103 14.1356C46.8824 13.5776 46.6506 13.0118 46.4148 12.4381C46.179 11.8644 45.959 11.3182 45.7547 10.7996C45.2517 10.7838 44.7409 10.7721 44.2222 10.7642C43.7036 10.7563 43.1849 10.7524 42.6662 10.7524C42.179 10.7524 41.6996 10.7563 41.2281 10.7642C40.7566 10.7721 40.2772 10.7838 39.79 10.7996C39.287 12.0255 38.8312 13.1925 38.4226 14.3006C38.0139 15.4086 37.7074 16.3242 37.5031 17.0472C37.2359 17.0157 36.9452 17 36.6308 17C36.3165 17 36.0257 17.0157 35.7585 17.0472C37.0316 14.2967 38.2733 11.5619 39.4835 8.84277C40.6937 6.12369 41.9118 3.35745 43.1378 0.544067H43.5857C43.9629 1.45567 44.3716 2.44192 44.8116 3.50284C45.2517 4.56375 45.6997 5.63645 46.1555 6.72094C46.6113 7.80543 47.0671 8.88206 47.5229 9.95084C47.9787 11.0196 48.407 12.0137 48.8077 12.9332C49.2085 13.8526 49.57 14.6739 49.8922 15.3969ZM42.7841 9.76223C42.3755 9.76223 41.9511 9.75437 41.511 9.73865C41.0709 9.72294 40.6466 9.71508 40.2379 9.71508L42.8077 3.72681L45.4246 9.71508C44.9845 9.73079 44.5444 9.74258 44.1044 9.75044C43.6643 9.7583 43.2242 9.76223 42.7841 9.76223ZM77.7589 13.0982C77.9161 14.4263 78.089 15.7426 78.2776 17.0472C78.089 17.0157 77.9043 17 77.7235 17H76.6155C76.4347 17 76.25 17.0157 76.0614 17.0472C75.8885 14.9568 75.7157 12.9293 75.5428 10.9646C75.3699 8.99994 75.1577 6.99599 74.9062 4.95275H74.8591C73.7746 6.93313 72.7097 8.90171 71.6645 10.8585C70.6193 12.8153 69.6252 14.8625 68.6822 17H68.47C67.527 15.0196 66.5407 13.0353 65.5112 11.0471C64.4818 9.05888 63.4484 7.02743 62.411 4.95275H62.3639C62.2538 5.92722 62.132 6.98421 61.9984 8.12371C61.8648 9.26321 61.743 10.387 61.633 11.4951C61.523 12.6031 61.4287 13.6483 61.3501 14.6306C61.2715 15.613 61.2322 16.4185 61.2322 17.0472C60.9807 17.0157 60.7057 17 60.4071 17C60.1084 17 59.8334 17.0157 59.5819 17.0472C59.7862 15.7741 59.9984 14.4302 60.2185 13.0157C60.4385 11.6011 60.6507 10.1787 60.855 8.74847C61.0593 7.3182 61.2479 5.90758 61.4208 4.5166C61.5937 3.12562 61.743 1.80145 61.8688 0.544067H62.2696C63.354 2.77592 64.4503 4.94489 65.5584 7.051C66.6665 9.15711 67.8256 11.3182 69.0358 13.5344C69.193 13.2357 69.4209 12.8074 69.7195 12.2495C70.0182 11.6915 70.3639 11.051 70.7569 10.328C71.1498 9.60506 71.5702 8.82312 72.0182 7.98225C72.4661 7.14138 72.9219 6.28872 73.3856 5.42427C73.8492 4.55982 74.309 3.71109 74.7648 2.87808C75.2206 2.04506 75.6449 1.26706 76.0379 0.544067H76.3443C76.5172 2.05292 76.6783 3.5107 76.8277 4.91739C76.977 6.32408 77.1302 7.7072 77.2874 9.06674C77.4446 10.4263 77.6017 11.7701 77.7589 13.0982ZM97.433 17.0472C97.3858 16.89 97.3622 16.6857 97.3622 16.4342C97.3622 16.3242 97.3662 16.2024 97.374 16.0688C97.3819 15.9352 97.4015 15.8134 97.433 15.7033C97.0557 15.7819 96.6117 15.8409 96.1009 15.8802C95.5901 15.9195 95.0479 15.9509 94.4742 15.9745C93.9005 15.998 93.315 16.0098 92.7178 16.0098H91.0675C91.0518 15.7112 91.04 15.2711 91.0321 14.6896C91.0243 14.108 91.0203 13.3693 91.0203 12.4735V10.1394C91.0203 9.88797 91.0243 9.67971 91.0321 9.51468C91.04 9.34965 91.0439 9.19641 91.0439 9.05495C91.3268 9.05495 91.708 9.05888 92.1873 9.06674C92.6667 9.0746 93.1775 9.08246 93.7198 9.09032C94.262 9.09818 94.8043 9.11782 95.3465 9.14926C95.8887 9.18069 96.3642 9.21998 96.7728 9.26714C96.7257 9.03138 96.7021 8.79562 96.7021 8.55986C96.7021 8.30838 96.7257 8.06477 96.7728 7.82901C96.4271 7.86044 96.0616 7.88795 95.6766 7.91152C95.2915 7.9351 94.871 7.95868 94.4153 7.98225C93.9594 8.00583 93.4565 8.02547 92.9064 8.04119C92.3563 8.05691 91.7355 8.06477 91.0439 8.06477C91.0439 7.76614 91.04 7.32606 91.0321 6.74452C91.0243 6.16298 91.0203 5.56573 91.0203 4.95275C91.0203 4.37122 91.0321 3.85255 91.0557 3.39675C91.0793 2.94095 91.0989 2.46157 91.1146 1.95862C91.8848 1.95862 92.5449 1.97041 93.095 1.99398C93.6451 2.01756 94.152 2.04506 94.6156 2.0765C95.0793 2.10793 95.5194 2.13937 95.9359 2.1708C96.3524 2.20224 96.8121 2.23367 97.3151 2.26511C97.2679 2.02935 97.2444 1.79359 97.2444 1.55783C97.2444 1.32207 97.2679 1.08631 97.3151 0.850554C96.6078 0.881988 95.9084 0.909493 95.2168 0.933069C94.5253 0.956645 93.8259 0.968433 93.1186 0.968433C92.4113 0.968433 91.708 0.956645 91.0085 0.933069C90.3091 0.909493 89.6058 0.881988 88.8985 0.850554C88.9456 1.85646 88.9889 2.86236 89.0282 3.86826C89.0675 4.87417 89.0871 5.89579 89.0871 6.93313V10.9882C89.0871 12.0255 89.0675 13.0432 89.0282 14.0412C88.9889 15.0393 88.9456 16.0413 88.8985 17.0472C89.6215 17.0157 90.3366 17 91.0439 17H95.3229C96.0223 17 96.7257 17.0157 97.433 17.0472ZM121.845 16.3413L121.846 17.3537H121.516C119.708 15.2633 117.783 13.1218 115.74 10.9292C113.696 8.73668 111.653 6.55591 109.61 4.38693C109.594 4.82701 109.578 5.41641 109.563 6.15512C109.549 6.81996 109.541 7.70123 109.539 8.79892L109.539 9.17283C109.539 9.50289 109.543 9.91154 109.551 10.3988C109.559 10.886 109.567 11.3968 109.575 11.9312C109.582 12.4656 109.594 13.0078 109.61 13.5579C109.626 14.108 109.641 14.6189 109.657 15.0904C109.673 15.5619 109.688 15.9745 109.704 16.3281C109.72 16.6817 109.736 16.9214 109.751 17.0472C109.5 17.0157 109.225 17 108.926 17C108.612 17 108.321 17.0157 108.054 17.0472C108.085 16.89 108.121 16.5992 108.16 16.1749C108.199 15.7505 108.235 15.2436 108.266 14.6542C108.297 14.0648 108.333 13.4243 108.372 12.7328C108.411 12.0412 108.443 11.3497 108.466 10.6581C108.49 9.96655 108.51 9.29071 108.525 8.63059C108.538 8.10249 108.546 7.61965 108.548 7.18209L108.548 5.88793C108.547 4.78772 108.543 3.81587 108.537 2.97238C108.529 1.88789 108.51 1.07845 108.478 0.544067H108.855C109.814 1.58141 110.84 2.6934 111.932 3.88005C113.024 5.0667 114.109 6.23764 115.186 7.39285C116.262 8.54807 117.284 9.64042 118.25 10.6699C119.217 11.6994 120.062 12.5756 120.785 13.2986V10.0923C120.785 8.44198 120.773 6.83489 120.749 5.27103C120.726 3.70716 120.675 2.23367 120.596 0.850554C120.911 0.92914 121.178 0.968433 121.398 0.968433C121.586 0.968433 121.838 0.92914 122.152 0.850554C122.121 1.19633 122.085 1.715 122.046 2.40656C122.007 3.09812 121.968 3.83683 121.928 4.62269C121.889 5.40855 121.854 6.1787 121.822 6.93313C121.795 7.57978 121.78 8.11673 121.776 8.54398L121.775 10.163C121.775 10.6974 121.779 11.2554 121.787 11.8369L121.81 13.5933C121.818 14.1827 121.826 14.7328 121.834 15.2436C121.84 15.6523 121.844 16.0182 121.845 16.3413ZM146.541 17.0472C146.337 16.67 146.074 16.1199 145.752 15.3969C145.429 14.6739 145.068 13.8526 144.667 12.9332C144.266 12.0137 143.838 11.0196 143.382 9.95084C142.927 8.88206 142.471 7.80543 142.015 6.72094C141.559 5.63645 141.111 4.56375 140.671 3.50284C140.231 2.44192 139.822 1.45567 139.445 0.544067H138.997C137.771 3.35745 136.553 6.12369 135.343 8.84277C134.133 11.5619 132.891 14.2967 131.618 17.0472C131.885 17.0157 132.176 17 132.49 17C132.805 17 133.095 17.0157 133.363 17.0472C133.567 16.3242 133.873 15.4086 134.282 14.3006C134.691 13.1925 135.146 12.0255 135.649 10.7996C136.137 10.7838 136.616 10.7721 137.088 10.7642C137.559 10.7563 138.038 10.7524 138.526 10.7524C139.044 10.7524 139.563 10.7563 140.082 10.7642C140.6 10.7721 141.111 10.7838 141.614 10.7996C141.818 11.3182 142.038 11.8644 142.274 12.4381C142.51 13.0118 142.742 13.5776 142.97 14.1356C143.198 14.6935 143.406 15.2279 143.594 15.7387C143.783 16.2495 143.932 16.6857 144.042 17.0472C144.262 17.0157 144.471 17 144.667 17H145.917C146.113 17 146.321 17.0157 146.541 17.0472ZM137.37 9.73865C137.811 9.75437 138.235 9.76223 138.644 9.76223C139.084 9.76223 139.524 9.7583 139.964 9.75044C140.404 9.74258 140.844 9.73079 141.284 9.71508L138.667 3.72681L136.097 9.71508C136.37 9.71508 136.649 9.71857 136.936 9.72555L137.37 9.73865Z" fill="#FAFCFD"/>
<mask id="mask0" mask-type="alpha" maskUnits="userSpaceOnUse" x="0" y="21" width="169" height="9">
<path fill-rule="evenodd" clip-rule="evenodd" d="M0.77301 21.2785H168.947V29.1371H0.77301V21.2785Z" fill="white"/>
</mask>
<g mask="url(#mask0)">
<path fill-rule="evenodd" clip-rule="evenodd" d="M0.77301 21.2785C42.5071 39.1121 151.573 9.68492 168.947 29.1371C147.494 13.0221 33.4746 42.0253 0.77301 21.2785" fill="#FAFCFD"/>
</g>
</svg>
